<?xml version="1.0" standalone="no"?>
<!DOCTYPE svg PUBLIC "-//W3C//DTD SVG 20010904//EN"
 "http://www.w3.org/TR/2001/REC-SVG-20010904/DTD/svg10.dtd">
<svg version="1.0" xmlns="http://www.w3.org/2000/svg"
 width="512.000000pt" height="512.000000pt" viewBox="0 0 512.000000 512.000000"
 preserveAspectRatio="xMidYMid meet">

<g transform="translate(0.000000,512.000000) scale(0.100000,-0.100000)"
fill="#000000" stroke="none">
<path d="M0 2560 l0 -2560 2560 0 2560 0 0 2560 0 2560 -2560 0 -2560 0 0
-2560z m2064 278 c298 -835 545 -1520 548 -1523 3 -3 10 7 16 22 5 15 249 683
542 1483 293 800 539 1474 547 1498 l15 42 504 0 505 0 -3 -132 -3 -131 -178
-50 -177 -49 2 -1426 3 -1425 178 -50 177 -49 0 -134 0 -134 -560 0 -561 0 3
132 3 132 173 52 c95 28 175 53 177 56 3 3 4 618 3 1367 l-3 1363 -564 -1508
c-311 -830 -573 -1528 -583 -1552 l-17 -42 -197 2 -197 3 -573 1553 c-315 855
-575 1556 -578 1559 -3 4 -6 -613 -6 -1370 0 -1302 1 -1376 18 -1381 9 -3 82
-23 162 -46 214 -60 191 -37 188 -187 l-3 -128 -560 0 -560 0 0 129 0 129 110
32 c61 18 143 42 183 54 l72 22 0 1422 0 1422 -167 49 c-93 27 -176 53 -185
58 -16 8 -18 25 -18 133 l0 125 511 -2 511 -3 542 -1517z"/>
</g>
</svg>
